<mxfile host="app.diagrams.net" modified="2021-10-19T22:01:00.760Z" agent="5.0 (X11; Linux x86_64) AppleWebKit/537.36 (KHTML, like Gecko) Chrome/91.0.4472.106 Safari/537.36" etag="O6FwhEaZrqv3-wgUdcti" version="14.8.0" type="github">
  <diagram id="boFq5O5b8FBe3sZARtjY" name="Page-1">
    <mxGraphModel dx="2200" dy="774" grid="1" gridSize="10" guides="1" tooltips="1" connect="1" arrows="1" fold="1" page="1" pageScale="1" pageWidth="850" pageHeight="1100" math="0" shadow="0">
      <root>
        <mxCell id="0" />
        <mxCell id="1" parent="0" />
        <mxCell id="99oPga90bTjYBZ1L2LQa-46" value="" style="shape=table;startSize=0;container=1;collapsible=0;childLayout=tableLayout;" vertex="1" parent="1">
          <mxGeometry x="-260" y="20" width="650" height="340" as="geometry" />
        </mxCell>
        <mxCell id="99oPga90bTjYBZ1L2LQa-47" value="" style="shape=partialRectangle;collapsible=0;dropTarget=0;pointerEvents=0;fillColor=none;top=0;left=0;bottom=0;right=0;points=[[0,0.5],[1,0.5]];portConstraint=eastwest;" vertex="1" parent="99oPga90bTjYBZ1L2LQa-46">
          <mxGeometry width="650" height="49" as="geometry" />
        </mxCell>
        <mxCell id="99oPga90bTjYBZ1L2LQa-48" value="ACTION" style="shape=partialRectangle;html=1;whiteSpace=wrap;connectable=0;overflow=hidden;fillColor=none;top=0;left=0;bottom=0;right=0;" vertex="1" parent="99oPga90bTjYBZ1L2LQa-47">
          <mxGeometry width="130" height="49" as="geometry" />
        </mxCell>
        <mxCell id="99oPga90bTjYBZ1L2LQa-49" value="METHOD" style="shape=partialRectangle;html=1;whiteSpace=wrap;connectable=0;overflow=hidden;fillColor=none;top=0;left=0;bottom=0;right=0;" vertex="1" parent="99oPga90bTjYBZ1L2LQa-47">
          <mxGeometry x="130" width="130" height="49" as="geometry" />
        </mxCell>
        <mxCell id="99oPga90bTjYBZ1L2LQa-50" value="URL" style="shape=partialRectangle;html=1;whiteSpace=wrap;connectable=0;overflow=hidden;fillColor=none;top=0;left=0;bottom=0;right=0;" vertex="1" parent="99oPga90bTjYBZ1L2LQa-47">
          <mxGeometry x="260" width="130" height="49" as="geometry" />
        </mxCell>
        <mxCell id="99oPga90bTjYBZ1L2LQa-51" value="INPUT" style="shape=partialRectangle;html=1;whiteSpace=wrap;connectable=0;overflow=hidden;fillColor=none;top=0;left=0;bottom=0;right=0;" vertex="1" parent="99oPga90bTjYBZ1L2LQa-47">
          <mxGeometry x="390" width="130" height="49" as="geometry" />
        </mxCell>
        <mxCell id="99oPga90bTjYBZ1L2LQa-52" value="HTTP RESPONSES" style="shape=partialRectangle;html=1;whiteSpace=wrap;connectable=0;overflow=hidden;fillColor=none;top=0;left=0;bottom=0;right=0;" vertex="1" parent="99oPga90bTjYBZ1L2LQa-47">
          <mxGeometry x="520" width="130" height="49" as="geometry" />
        </mxCell>
        <mxCell id="99oPga90bTjYBZ1L2LQa-53" value="" style="shape=partialRectangle;collapsible=0;dropTarget=0;pointerEvents=0;fillColor=none;top=0;left=0;bottom=0;right=0;points=[[0,0.5],[1,0.5]];portConstraint=eastwest;" vertex="1" parent="99oPga90bTjYBZ1L2LQa-46">
          <mxGeometry y="49" width="650" height="48" as="geometry" />
        </mxCell>
        <mxCell id="99oPga90bTjYBZ1L2LQa-54" value="CREATE" style="shape=partialRectangle;html=1;whiteSpace=wrap;connectable=0;overflow=hidden;fillColor=none;top=0;left=0;bottom=0;right=0;" vertex="1" parent="99oPga90bTjYBZ1L2LQa-53">
          <mxGeometry width="130" height="48" as="geometry" />
        </mxCell>
        <mxCell id="99oPga90bTjYBZ1L2LQa-55" value="POST" style="shape=partialRectangle;html=1;whiteSpace=wrap;connectable=0;overflow=hidden;fillColor=none;top=0;left=0;bottom=0;right=0;" vertex="1" parent="99oPga90bTjYBZ1L2LQa-53">
          <mxGeometry x="130" width="130" height="48" as="geometry" />
        </mxCell>
        <mxCell id="99oPga90bTjYBZ1L2LQa-56" value="&lt;span style=&quot;text-align: left&quot;&gt;/api/v1/products&lt;/span&gt;" style="shape=partialRectangle;html=1;whiteSpace=wrap;connectable=0;overflow=hidden;fillColor=none;top=0;left=0;bottom=0;right=0;" vertex="1" parent="99oPga90bTjYBZ1L2LQa-53">
          <mxGeometry x="260" width="130" height="48" as="geometry" />
        </mxCell>
        <mxCell id="99oPga90bTjYBZ1L2LQa-57" value="sku, name,brand, size,price,principal image, other_images" style="shape=partialRectangle;html=1;whiteSpace=wrap;connectable=0;overflow=hidden;fillColor=none;top=0;left=0;bottom=0;right=0;" vertex="1" parent="99oPga90bTjYBZ1L2LQa-53">
          <mxGeometry x="390" width="130" height="48" as="geometry" />
        </mxCell>
        <mxCell id="99oPga90bTjYBZ1L2LQa-58" value="201, 400, 401" style="shape=partialRectangle;html=1;whiteSpace=wrap;connectable=0;overflow=hidden;fillColor=none;top=0;left=0;bottom=0;right=0;" vertex="1" parent="99oPga90bTjYBZ1L2LQa-53">
          <mxGeometry x="520" width="130" height="48" as="geometry" />
        </mxCell>
        <mxCell id="99oPga90bTjYBZ1L2LQa-59" value="" style="shape=partialRectangle;collapsible=0;dropTarget=0;pointerEvents=0;fillColor=none;top=0;left=0;bottom=0;right=0;points=[[0,0.5],[1,0.5]];portConstraint=eastwest;" vertex="1" parent="99oPga90bTjYBZ1L2LQa-46">
          <mxGeometry y="97" width="650" height="49" as="geometry" />
        </mxCell>
        <mxCell id="99oPga90bTjYBZ1L2LQa-60" value="EDIT" style="shape=partialRectangle;html=1;whiteSpace=wrap;connectable=0;overflow=hidden;fillColor=none;top=0;left=0;bottom=0;right=0;" vertex="1" parent="99oPga90bTjYBZ1L2LQa-59">
          <mxGeometry width="130" height="49" as="geometry" />
        </mxCell>
        <mxCell id="99oPga90bTjYBZ1L2LQa-61" value="PATCH" style="shape=partialRectangle;html=1;whiteSpace=wrap;connectable=0;overflow=hidden;fillColor=none;top=0;left=0;bottom=0;right=0;" vertex="1" parent="99oPga90bTjYBZ1L2LQa-59">
          <mxGeometry x="130" width="130" height="49" as="geometry" />
        </mxCell>
        <mxCell id="99oPga90bTjYBZ1L2LQa-62" value="&lt;span style=&quot;text-align: left&quot;&gt;/api/v1/products/:sku&lt;/span&gt;" style="shape=partialRectangle;html=1;whiteSpace=wrap;connectable=0;overflow=hidden;fillColor=none;top=0;left=0;bottom=0;right=0;" vertex="1" parent="99oPga90bTjYBZ1L2LQa-59">
          <mxGeometry x="260" width="130" height="49" as="geometry" />
        </mxCell>
        <mxCell id="99oPga90bTjYBZ1L2LQa-63" value="&lt;span&gt;name,brand, size,price,principal image, other_images&lt;/span&gt;" style="shape=partialRectangle;html=1;whiteSpace=wrap;connectable=0;overflow=hidden;fillColor=none;top=0;left=0;bottom=0;right=0;" vertex="1" parent="99oPga90bTjYBZ1L2LQa-59">
          <mxGeometry x="390" width="130" height="49" as="geometry" />
        </mxCell>
        <mxCell id="99oPga90bTjYBZ1L2LQa-64" value="200, 400, 401" style="shape=partialRectangle;html=1;whiteSpace=wrap;connectable=0;overflow=hidden;fillColor=none;top=0;left=0;bottom=0;right=0;" vertex="1" parent="99oPga90bTjYBZ1L2LQa-59">
          <mxGeometry x="520" width="130" height="49" as="geometry" />
        </mxCell>
        <mxCell id="99oPga90bTjYBZ1L2LQa-65" value="" style="shape=partialRectangle;collapsible=0;dropTarget=0;pointerEvents=0;fillColor=none;top=0;left=0;bottom=0;right=0;points=[[0,0.5],[1,0.5]];portConstraint=eastwest;" vertex="1" parent="99oPga90bTjYBZ1L2LQa-46">
          <mxGeometry y="146" width="650" height="48" as="geometry" />
        </mxCell>
        <mxCell id="99oPga90bTjYBZ1L2LQa-66" value="DELETE" style="shape=partialRectangle;html=1;whiteSpace=wrap;connectable=0;overflow=hidden;fillColor=none;top=0;left=0;bottom=0;right=0;" vertex="1" parent="99oPga90bTjYBZ1L2LQa-65">
          <mxGeometry width="130" height="48" as="geometry" />
        </mxCell>
        <mxCell id="99oPga90bTjYBZ1L2LQa-67" value="DELETE" style="shape=partialRectangle;html=1;whiteSpace=wrap;connectable=0;overflow=hidden;fillColor=none;top=0;left=0;bottom=0;right=0;" vertex="1" parent="99oPga90bTjYBZ1L2LQa-65">
          <mxGeometry x="130" width="130" height="48" as="geometry" />
        </mxCell>
        <mxCell id="99oPga90bTjYBZ1L2LQa-68" value="&lt;span style=&quot;text-align: left&quot;&gt;/api/v1/products/:sku&lt;/span&gt;" style="shape=partialRectangle;html=1;whiteSpace=wrap;connectable=0;overflow=hidden;fillColor=none;top=0;left=0;bottom=0;right=0;" vertex="1" parent="99oPga90bTjYBZ1L2LQa-65">
          <mxGeometry x="260" width="130" height="48" as="geometry" />
        </mxCell>
        <mxCell id="99oPga90bTjYBZ1L2LQa-69" value="sku" style="shape=partialRectangle;html=1;whiteSpace=wrap;connectable=0;overflow=hidden;fillColor=none;top=0;left=0;bottom=0;right=0;" vertex="1" parent="99oPga90bTjYBZ1L2LQa-65">
          <mxGeometry x="390" width="130" height="48" as="geometry" />
        </mxCell>
        <mxCell id="99oPga90bTjYBZ1L2LQa-70" value="&lt;meta charset=&quot;utf-8&quot;&gt;&lt;span style=&quot;color: rgb(0, 0, 0); font-family: helvetica; font-size: 12px; font-style: normal; font-weight: 400; letter-spacing: normal; text-align: center; text-indent: 0px; text-transform: none; word-spacing: 0px; background-color: rgb(248, 249, 250); display: inline; float: none;&quot;&gt;200, 400, 401&lt;/span&gt;" style="shape=partialRectangle;html=1;whiteSpace=wrap;connectable=0;overflow=hidden;fillColor=none;top=0;left=0;bottom=0;right=0;" vertex="1" parent="99oPga90bTjYBZ1L2LQa-65">
          <mxGeometry x="520" width="130" height="48" as="geometry" />
        </mxCell>
        <mxCell id="99oPga90bTjYBZ1L2LQa-71" value="" style="shape=partialRectangle;collapsible=0;dropTarget=0;pointerEvents=0;fillColor=none;top=0;left=0;bottom=0;right=0;points=[[0,0.5],[1,0.5]];portConstraint=eastwest;" vertex="1" parent="99oPga90bTjYBZ1L2LQa-46">
          <mxGeometry y="194" width="650" height="49" as="geometry" />
        </mxCell>
        <mxCell id="99oPga90bTjYBZ1L2LQa-72" value="ITEM INFO" style="shape=partialRectangle;html=1;whiteSpace=wrap;connectable=0;overflow=hidden;fillColor=none;top=0;left=0;bottom=0;right=0;" vertex="1" parent="99oPga90bTjYBZ1L2LQa-71">
          <mxGeometry width="130" height="49" as="geometry" />
        </mxCell>
        <mxCell id="99oPga90bTjYBZ1L2LQa-73" value="GET" style="shape=partialRectangle;html=1;whiteSpace=wrap;connectable=0;overflow=hidden;fillColor=none;top=0;left=0;bottom=0;right=0;" vertex="1" parent="99oPga90bTjYBZ1L2LQa-71">
          <mxGeometry x="130" width="130" height="49" as="geometry" />
        </mxCell>
        <mxCell id="99oPga90bTjYBZ1L2LQa-74" value="&lt;span style=&quot;text-align: left&quot;&gt;/api/v1/products/:sku&lt;/span&gt;" style="shape=partialRectangle;html=1;whiteSpace=wrap;connectable=0;overflow=hidden;fillColor=none;top=0;left=0;bottom=0;right=0;" vertex="1" parent="99oPga90bTjYBZ1L2LQa-71">
          <mxGeometry x="260" width="130" height="49" as="geometry" />
        </mxCell>
        <mxCell id="99oPga90bTjYBZ1L2LQa-75" value="sku" style="shape=partialRectangle;html=1;whiteSpace=wrap;connectable=0;overflow=hidden;fillColor=none;top=0;left=0;bottom=0;right=0;" vertex="1" parent="99oPga90bTjYBZ1L2LQa-71">
          <mxGeometry x="390" width="130" height="49" as="geometry" />
        </mxCell>
        <mxCell id="99oPga90bTjYBZ1L2LQa-76" value="&lt;span style=&quot;color: rgb(0 , 0 , 0) ; font-family: &amp;#34;helvetica&amp;#34; ; font-size: 12px ; font-style: normal ; font-weight: 400 ; letter-spacing: normal ; text-align: center ; text-indent: 0px ; text-transform: none ; word-spacing: 0px ; background-color: rgb(248 , 249 , 250) ; display: inline ; float: none&quot;&gt;200, 401&lt;/span&gt;" style="shape=partialRectangle;html=1;whiteSpace=wrap;connectable=0;overflow=hidden;fillColor=none;top=0;left=0;bottom=0;right=0;" vertex="1" parent="99oPga90bTjYBZ1L2LQa-71">
          <mxGeometry x="520" width="130" height="49" as="geometry" />
        </mxCell>
        <mxCell id="99oPga90bTjYBZ1L2LQa-77" value="" style="shape=partialRectangle;collapsible=0;dropTarget=0;pointerEvents=0;fillColor=none;top=0;left=0;bottom=0;right=0;points=[[0,0.5],[1,0.5]];portConstraint=eastwest;" vertex="1" parent="99oPga90bTjYBZ1L2LQa-46">
          <mxGeometry y="243" width="650" height="48" as="geometry" />
        </mxCell>
        <mxCell id="99oPga90bTjYBZ1L2LQa-78" value="ALL ITEMS INFO" style="shape=partialRectangle;html=1;whiteSpace=wrap;connectable=0;overflow=hidden;fillColor=none;top=0;left=0;bottom=0;right=0;" vertex="1" parent="99oPga90bTjYBZ1L2LQa-77">
          <mxGeometry width="130" height="48" as="geometry" />
        </mxCell>
        <mxCell id="99oPga90bTjYBZ1L2LQa-79" value="GET" style="shape=partialRectangle;html=1;whiteSpace=wrap;connectable=0;overflow=hidden;fillColor=none;top=0;left=0;bottom=0;right=0;" vertex="1" parent="99oPga90bTjYBZ1L2LQa-77">
          <mxGeometry x="130" width="130" height="48" as="geometry" />
        </mxCell>
        <mxCell id="99oPga90bTjYBZ1L2LQa-80" value="&lt;span style=&quot;text-align: left&quot;&gt;/api/v1/products/&lt;/span&gt;" style="shape=partialRectangle;html=1;whiteSpace=wrap;connectable=0;overflow=hidden;fillColor=none;top=0;left=0;bottom=0;right=0;" vertex="1" parent="99oPga90bTjYBZ1L2LQa-77">
          <mxGeometry x="260" width="130" height="48" as="geometry" />
        </mxCell>
        <mxCell id="99oPga90bTjYBZ1L2LQa-81" value="" style="shape=partialRectangle;html=1;whiteSpace=wrap;connectable=0;overflow=hidden;fillColor=none;top=0;left=0;bottom=0;right=0;" vertex="1" parent="99oPga90bTjYBZ1L2LQa-77">
          <mxGeometry x="390" width="130" height="48" as="geometry" />
        </mxCell>
        <mxCell id="99oPga90bTjYBZ1L2LQa-82" value="200,401" style="shape=partialRectangle;html=1;whiteSpace=wrap;connectable=0;overflow=hidden;fillColor=none;top=0;left=0;bottom=0;right=0;" vertex="1" parent="99oPga90bTjYBZ1L2LQa-77">
          <mxGeometry x="520" width="130" height="48" as="geometry" />
        </mxCell>
        <mxCell id="99oPga90bTjYBZ1L2LQa-83" value="" style="shape=partialRectangle;collapsible=0;dropTarget=0;pointerEvents=0;fillColor=none;top=0;left=0;bottom=0;right=0;points=[[0,0.5],[1,0.5]];portConstraint=eastwest;" vertex="1" parent="99oPga90bTjYBZ1L2LQa-46">
          <mxGeometry y="291" width="650" height="49" as="geometry" />
        </mxCell>
        <mxCell id="99oPga90bTjYBZ1L2LQa-84" value="" style="shape=partialRectangle;html=1;whiteSpace=wrap;connectable=0;overflow=hidden;fillColor=none;top=0;left=0;bottom=0;right=0;" vertex="1" parent="99oPga90bTjYBZ1L2LQa-83">
          <mxGeometry width="130" height="49" as="geometry" />
        </mxCell>
        <mxCell id="99oPga90bTjYBZ1L2LQa-85" value="" style="shape=partialRectangle;html=1;whiteSpace=wrap;connectable=0;overflow=hidden;fillColor=none;top=0;left=0;bottom=0;right=0;" vertex="1" parent="99oPga90bTjYBZ1L2LQa-83">
          <mxGeometry x="130" width="130" height="49" as="geometry" />
        </mxCell>
        <mxCell id="99oPga90bTjYBZ1L2LQa-86" value="" style="shape=partialRectangle;html=1;whiteSpace=wrap;connectable=0;overflow=hidden;fillColor=none;top=0;left=0;bottom=0;right=0;" vertex="1" parent="99oPga90bTjYBZ1L2LQa-83">
          <mxGeometry x="260" width="130" height="49" as="geometry" />
        </mxCell>
        <mxCell id="99oPga90bTjYBZ1L2LQa-87" value="" style="shape=partialRectangle;html=1;whiteSpace=wrap;connectable=0;overflow=hidden;fillColor=none;top=0;left=0;bottom=0;right=0;" vertex="1" parent="99oPga90bTjYBZ1L2LQa-83">
          <mxGeometry x="390" width="130" height="49" as="geometry" />
        </mxCell>
        <mxCell id="99oPga90bTjYBZ1L2LQa-88" value="" style="shape=partialRectangle;html=1;whiteSpace=wrap;connectable=0;overflow=hidden;fillColor=none;top=0;left=0;bottom=0;right=0;" vertex="1" parent="99oPga90bTjYBZ1L2LQa-83">
          <mxGeometry x="520" width="130" height="49" as="geometry" />
        </mxCell>
        <mxCell id="99oPga90bTjYBZ1L2LQa-91" value="" style="shape=cube;whiteSpace=wrap;html=1;boundedLbl=1;backgroundOutline=1;darkOpacity=0.05;darkOpacity2=0.1;" vertex="1" parent="1">
          <mxGeometry x="150" y="405" width="330" height="245" as="geometry" />
        </mxCell>
        <mxCell id="99oPga90bTjYBZ1L2LQa-93" value="" style="group" vertex="1" connectable="0" parent="1">
          <mxGeometry x="270" y="490" width="120" height="110" as="geometry" />
        </mxCell>
        <mxCell id="99oPga90bTjYBZ1L2LQa-1" value="" style="shape=datastore;whiteSpace=wrap;html=1;" vertex="1" parent="99oPga90bTjYBZ1L2LQa-93">
          <mxGeometry width="120.00000000000001" height="110" as="geometry" />
        </mxCell>
        <mxCell id="99oPga90bTjYBZ1L2LQa-89" value="MongoDB Collections Products" style="text;html=1;strokeColor=none;fillColor=none;align=center;verticalAlign=middle;whiteSpace=wrap;rounded=0;" vertex="1" parent="99oPga90bTjYBZ1L2LQa-93">
          <mxGeometry x="49.411764705882355" y="58.235294117647065" width="28.23529411764706" height="12.941176470588236" as="geometry" />
        </mxCell>
        <mxCell id="99oPga90bTjYBZ1L2LQa-94" value="Contenedor Database" style="text;html=1;strokeColor=none;fillColor=none;align=center;verticalAlign=middle;whiteSpace=wrap;rounded=0;" vertex="1" parent="1">
          <mxGeometry x="287.5" y="675" width="40" height="20" as="geometry" />
        </mxCell>
        <mxCell id="99oPga90bTjYBZ1L2LQa-97" value="" style="shape=cube;whiteSpace=wrap;html=1;boundedLbl=1;backgroundOutline=1;darkOpacity=0.05;darkOpacity2=0.1;" vertex="1" parent="1">
          <mxGeometry x="-342.5" y="405" width="330" height="240" as="geometry" />
        </mxCell>
        <mxCell id="99oPga90bTjYBZ1L2LQa-98" value="api-products" style="rounded=0;whiteSpace=wrap;html=1;" vertex="1" parent="1">
          <mxGeometry x="-232.5" y="505" width="120" height="60" as="geometry" />
        </mxCell>
        <mxCell id="99oPga90bTjYBZ1L2LQa-99" value="Contenedor API" style="text;html=1;strokeColor=none;fillColor=none;align=center;verticalAlign=middle;whiteSpace=wrap;rounded=0;" vertex="1" parent="1">
          <mxGeometry x="-202.5" y="675" width="40" height="20" as="geometry" />
        </mxCell>
        <mxCell id="99oPga90bTjYBZ1L2LQa-100" value="" style="endArrow=classic;startArrow=classic;html=1;" edge="1" parent="1">
          <mxGeometry width="50" height="50" relative="1" as="geometry">
            <mxPoint x="-12.5" y="535" as="sourcePoint" />
            <mxPoint x="147.5" y="535" as="targetPoint" />
          </mxGeometry>
        </mxCell>
        <mxCell id="99oPga90bTjYBZ1L2LQa-102" value="Service&lt;br&gt;(Business Logic)" style="ellipse;whiteSpace=wrap;html=1;aspect=fixed;" vertex="1" parent="1">
          <mxGeometry x="10" y="960" width="150" height="150" as="geometry" />
        </mxCell>
        <mxCell id="99oPga90bTjYBZ1L2LQa-103" value="Controller&lt;br&gt;(HTTP Adapter)" style="rounded=0;whiteSpace=wrap;html=1;" vertex="1" parent="1">
          <mxGeometry x="-237.5" y="900" width="120" height="60" as="geometry" />
        </mxCell>
        <mxCell id="99oPga90bTjYBZ1L2LQa-104" value="Datasource&lt;br&gt;(DB Adapter)" style="rounded=0;whiteSpace=wrap;html=1;" vertex="1" parent="1">
          <mxGeometry x="240" y="880" width="120" height="60" as="geometry" />
        </mxCell>
        <mxCell id="99oPga90bTjYBZ1L2LQa-106" value="Repository" style="rounded=0;whiteSpace=wrap;html=1;" vertex="1" parent="1">
          <mxGeometry x="130" y="930" width="120" height="60" as="geometry" />
        </mxCell>
        <mxCell id="99oPga90bTjYBZ1L2LQa-107" value="" style="shape=flexArrow;endArrow=classic;startArrow=classic;html=1;exitX=0.013;exitY=0.393;exitDx=0;exitDy=0;exitPerimeter=0;" edge="1" parent="1" source="99oPga90bTjYBZ1L2LQa-102">
          <mxGeometry width="100" height="100" relative="1" as="geometry">
            <mxPoint x="-90" y="1070" as="sourcePoint" />
            <mxPoint x="-110" y="950" as="targetPoint" />
          </mxGeometry>
        </mxCell>
      </root>
    </mxGraphModel>
  </diagram>
</mxfile>
